#define 4x5_width 100
#define 4x5_height 17
static unsigned char 4x5_bits[] = {
   0xe6, 0xb8, 0xf3, 0x9e, 0x4b, 0x87, 0x52, 0x88, 0x92, 0x39, 0xe6, 0xb8,
   0x0f, 0x29, 0x85, 0x14, 0x42, 0x48, 0x82, 0x4a, 0xd8, 0x56, 0x4a, 0x29,
   0x05, 0x02, 0xe9, 0x84, 0x74, 0x4e, 0x7b, 0x82, 0x46, 0xa8, 0x56, 0x3a,
   0xe9, 0x18, 0x02, 0x2f, 0x85, 0x14, 0x42, 0x4a, 0x92, 0x4a, 0xa8, 0x5a,
   0x0a, 0xa5, 0x20, 0x02, 0xe9, 0xb8, 0xf3, 0x82, 0x49, 0x67, 0xd2, 0x8b,
   0x92, 0x09, 0x2a, 0x1d, 0x02, 0x00, 0x00, 0x00, 0x00, 0x00, 0x00, 0x00,
   0x00, 0x00, 0x00, 0x00, 0x00, 0x00, 0x29, 0x8a, 0xa2, 0xe8, 0x19, 0x99,
   0x43, 0x9e, 0x79, 0xc6, 0x64, 0x9c, 0x09, 0x29, 0x8a, 0x94, 0x08, 0xa5,
   0x25, 0x64, 0x42, 0x40, 0x29, 0x95, 0x8a, 0x05, 0x29, 0xaa, 0x08, 0xc5,
   0x24, 0x91, 0x53, 0xce, 0x21, 0xc6, 0x45, 0x1c, 0x02, 0x49, 0xd9, 0x14,
   0x22, 0x24, 0x09, 0xf4, 0x50, 0x12, 0x09, 0x01, 0x28, 0x0d, 0x86, 0x88,
   0x22, 0xe2, 0x19, 0xbd, 0x43, 0x8e, 0x09, 0xc6, 0x44, 0x9c, 0x0c, 0x00,
   0x00, 0x00, 0x00, 0x00, 0x00, 0x00, 0x00, 0x00, 0x00, 0x00, 0x00, 0x00,
   0x04, 0x00, 0x00, 0x0c, 0x00, 0x00, 0x00, 0x00, 0x00, 0x00, 0x00, 0x00,
   0x00, 0x04, 0x28, 0xf4, 0x12, 0x00, 0x00, 0x00, 0x00, 0x00, 0x00, 0x00,
   0x00, 0x00, 0xdf, 0x13, 0x02, 0x1a, 0x00, 0x00, 0x00, 0x00, 0x00, 0x00,
   0x00, 0x00, 0x00, 0x04, 0x28, 0xf1, 0x02, 0x00, 0x00, 0x00, 0x00, 0x00,
   0x00, 0x00, 0x00, 0x00, 0x04, 0x80, 0x00, 0x0c, 0x00, 0x00, 0x00, 0x00,
   0x00, 0x00, 0x00, 0x00, 0x00};
