#define 5x5_width 100
#define 5x5_height 17
static unsigned char 5x5_bits[] = {
   0xce, 0xe3, 0x3c, 0xdf, 0xe7, 0x45, 0x07, 0x45, 0x41, 0x14, 0x39, 0x8f,
   0x03, 0x51, 0x14, 0x45, 0x41, 0x10, 0x44, 0x02, 0x25, 0xc1, 0x36, 0x45,
   0x51, 0x04, 0xd1, 0x13, 0x44, 0xcf, 0x93, 0x7d, 0x02, 0x1d, 0x41, 0x55,
   0x45, 0x4f, 0x04, 0x5f, 0x14, 0x45, 0x41, 0x10, 0x45, 0x12, 0x25, 0x41,
   0x95, 0x45, 0x41, 0x02, 0xd1, 0xe3, 0x3c, 0x5f, 0xe0, 0x44, 0xe7, 0x44,
   0x5f, 0x14, 0x39, 0x81, 0x05, 0x00, 0x00, 0x00, 0x00, 0x00, 0x00, 0x00,
   0x00, 0x00, 0x00, 0x00, 0x00, 0x00, 0x8f, 0xf7, 0x45, 0x51, 0x14, 0x45,
   0x9f, 0x23, 0xf3, 0x38, 0x9f, 0xf3, 0x01, 0x51, 0x40, 0x44, 0x51, 0xa4,
   0x28, 0x48, 0xb4, 0x04, 0x25, 0x41, 0x00, 0x01, 0x8f, 0x43, 0x44, 0x51,
   0x45, 0x10, 0x44, 0x24, 0xe2, 0x7c, 0xcf, 0x83, 0x00, 0x05, 0x44, 0x44,
   0xca, 0xa6, 0x10, 0x42, 0x24, 0x01, 0x21, 0x50, 0x44, 0x00, 0xc9, 0x43,
   0x38, 0x44, 0x14, 0x11, 0x9f, 0xa3, 0xf7, 0x20, 0x8f, 0x23, 0x00, 0x00,
   0x00, 0x00, 0x00, 0x00, 0x00, 0x00, 0x00, 0x00, 0x00, 0x00, 0x00, 0x00,
   0x8e, 0x93, 0xe3, 0x4c, 0x04, 0x00, 0x10, 0xe0, 0x00, 0x00, 0x00, 0x00,
   0x00, 0x51, 0x54, 0x54, 0x2c, 0x04, 0x50, 0xc8, 0x97, 0x01, 0x00, 0x00,
   0x00, 0x00, 0x8e, 0x17, 0xe3, 0x10, 0xdf, 0x27, 0x04, 0xd0, 0x01, 0x00,
   0x00, 0x00, 0x00, 0x11, 0x04, 0x40, 0x69, 0x04, 0x50, 0xc2, 0x17, 0x00,
   0x00, 0x00, 0x00, 0x00, 0x8e, 0x13, 0xe1, 0x64, 0x04, 0x00, 0x01, 0xe0,
   0x00, 0x00, 0x00, 0x00, 0x00};
