#define 5x7_width 100
#define 5x7_height 23
static unsigned char 5x7_bits[] = {
   0xce, 0xe3, 0x1c, 0xdf, 0xe7, 0x44, 0x07, 0x45, 0x41, 0x14, 0x39, 0x8f,
   0x03, 0x51, 0x14, 0x25, 0x41, 0x10, 0x45, 0x02, 0x25, 0xc1, 0x36, 0x45,
   0x51, 0x04, 0x51, 0x14, 0x44, 0x41, 0x10, 0x44, 0x02, 0x15, 0x41, 0x55,
   0x45, 0x51, 0x04, 0xd1, 0x13, 0x44, 0xcf, 0x93, 0x7d, 0x02, 0x0d, 0x41,
   0x55, 0x45, 0x4f, 0x04, 0x5f, 0x14, 0x44, 0x41, 0x10, 0x45, 0x02, 0x15,
   0x41, 0x54, 0x45, 0x41, 0x05, 0x51, 0x14, 0x25, 0x41, 0x10, 0x45, 0x12,
   0x25, 0x41, 0x94, 0x45, 0x41, 0x02, 0xd1, 0xe3, 0x1c, 0x5f, 0xe0, 0x44,
   0xe7, 0x44, 0x5f, 0x14, 0x39, 0x81, 0x05, 0x00, 0x00, 0x00, 0x00, 0x00,
   0x00, 0x00, 0x00, 0x00, 0x00, 0x00, 0x00, 0x00, 0x8f, 0xf3, 0x45, 0x51,
   0x14, 0x45, 0x1f, 0x41, 0x8e, 0x83, 0x7c, 0xce, 0x07, 0x51, 0x44, 0x44,
   0x51, 0x14, 0x45, 0x90, 0x62, 0x51, 0xc4, 0x04, 0x11, 0x04, 0x51, 0x40,
   0x44, 0x51, 0xa4, 0x44, 0x48, 0x54, 0x10, 0xa4, 0x04, 0x01, 0x04, 0x8f,
   0x43, 0x44, 0x51, 0x45, 0x28, 0x44, 0x44, 0x88, 0x93, 0x38, 0x0f, 0x02,
   0x05, 0x44, 0x44, 0x51, 0xa5, 0x10, 0x42, 0x44, 0x04, 0xf4, 0x41, 0x11,
   0x01, 0x49, 0x44, 0x44, 0xca, 0x16, 0x11, 0x81, 0x42, 0x42, 0x84, 0x44,
   0x91, 0x00, 0x91, 0x43, 0x38, 0x44, 0x14, 0x11, 0x1f, 0x41, 0x9f, 0x83,
   0x38, 0x4e, 0x00, 0x00, 0x00, 0x00, 0x00, 0x00, 0x00, 0x00, 0x00, 0x00,
   0x00, 0x00, 0x00, 0x00, 0x8e, 0x23, 0x87, 0x98, 0x00, 0x00, 0x80, 0x00,
   0x07, 0x00, 0x00, 0x00, 0x00, 0x51, 0xa4, 0xc8, 0x9b, 0x08, 0x20, 0x82,
   0x80, 0x08, 0x00, 0x00, 0x00, 0x00, 0x51, 0x24, 0xa8, 0x40, 0x08, 0x40,
   0x41, 0xbe, 0x0c, 0x00, 0x00, 0x00, 0x00, 0x8e, 0x27, 0xc4, 0x21, 0xbe,
   0x8f, 0x20, 0x80, 0x0a, 0x00, 0x00, 0x00, 0x00, 0x11, 0x24, 0x82, 0x12,
   0x08, 0x40, 0x11, 0xbe, 0x06, 0x00, 0x00, 0x00, 0x00, 0x51, 0x04, 0xe0,
   0xc9, 0x08, 0x20, 0x0a, 0x80, 0x00, 0x00, 0x00, 0x00, 0x00, 0x8e, 0x23,
   0x82, 0xc8, 0x00, 0x00, 0x08, 0x00, 0x07, 0x00, 0x00, 0x00, 0x00};
