#define 4x7_width 100
#define 4x7_height 23
static unsigned char 4x7_bits[] = {
   0xe6, 0x98, 0xf1, 0x9e, 0x49, 0x87, 0x52, 0x88, 0x92, 0x39, 0xe6, 0x98,
   0x0f, 0x29, 0xa5, 0x12, 0x42, 0x4a, 0x82, 0x4a, 0xd8, 0x56, 0x4a, 0x29,
   0x25, 0x02, 0x29, 0x85, 0x14, 0x42, 0x48, 0x82, 0x46, 0xa8, 0x56, 0x4a,
   0x29, 0x05, 0x02, 0xe9, 0x84, 0x74, 0x4e, 0x7b, 0x82, 0x42, 0xa8, 0x5a,
   0x3a, 0xe9, 0x18, 0x02, 0x2f, 0x85, 0x14, 0x42, 0x4a, 0x82, 0x46, 0x88,
   0x5a, 0x0a, 0xa9, 0x20, 0x02, 0x29, 0xa5, 0x12, 0x42, 0x4a, 0x92, 0x4a,
   0x88, 0x5a, 0x0a, 0x25, 0x25, 0x02, 0xe9, 0x98, 0xf1, 0x82, 0x49, 0x67,
   0xd2, 0x8b, 0x92, 0x09, 0x2a, 0x19, 0x02, 0x00, 0x00, 0x00, 0x00, 0x00,
   0x00, 0x00, 0x00, 0x00, 0x00, 0x00, 0x00, 0x00, 0x29, 0x8a, 0xa2, 0xe8,
   0x19, 0x32, 0x86, 0x3c, 0xf3, 0x8c, 0xc9, 0x10, 0x00, 0x29, 0x8a, 0xa2,
   0x08, 0x25, 0x4b, 0xc9, 0x84, 0x84, 0x52, 0x2a, 0x79, 0x00, 0x29, 0x8a,
   0x94, 0x88, 0xa4, 0x42, 0xa8, 0x84, 0x80, 0x52, 0x0a, 0x15, 0x00, 0x29,
   0xaa, 0x08, 0x45, 0x24, 0x22, 0xe6, 0x9d, 0x43, 0x8c, 0x8b, 0x38, 0x00,
   0x29, 0xaa, 0x14, 0x22, 0x24, 0x12, 0x88, 0xa0, 0x24, 0x12, 0x4a, 0x50,
   0x00, 0x49, 0xd9, 0x22, 0x22, 0x24, 0x0a, 0x89, 0xa4, 0x14, 0x52, 0x02,
   0x3c, 0x00, 0x86, 0x88, 0x22, 0xe2, 0x19, 0x7a, 0x86, 0x18, 0x13, 0x8c,
   0x49, 0x10, 0x00, 0x00, 0x00, 0x00, 0x00, 0x00, 0x00, 0x00, 0x00, 0x00,
   0x00, 0x00, 0x00, 0x00, 0x13, 0x00, 0x00, 0x00, 0x03, 0x00, 0x00, 0x00,
   0x00, 0x00, 0x00, 0x00, 0x00, 0x13, 0x01, 0x00, 0x81, 0x04, 0x00, 0x00,
   0x00, 0x00, 0x00, 0x00, 0x00, 0x00, 0x08, 0x01, 0x0a, 0xbd, 0x06, 0x00,
   0x00, 0x00, 0x00, 0x00, 0x00, 0x00, 0x00, 0xc4, 0xf7, 0x84, 0x80, 0x06,
   0x00, 0x00, 0x00, 0x00, 0x00, 0x00, 0x00, 0x00, 0x02, 0x01, 0x4a, 0xbc,
   0x06, 0x00, 0x00, 0x00, 0x00, 0x00, 0x00, 0x00, 0x00, 0x19, 0x01, 0x20,
   0x80, 0x30, 0x00, 0x00, 0x00, 0x00, 0x00, 0x00, 0x00, 0x00, 0x19, 0x00,
   0x20, 0x00, 0x37, 0x00, 0x00, 0x00, 0x00, 0x00, 0x00, 0x00, 0x00};
