#define 5x9_width 100
#define 5x9_height 29
static unsigned char 5x9_bits[] = {
   0xc4, 0xe3, 0x1c, 0xdf, 0xe7, 0x44, 0x07, 0x45, 0x41, 0x14, 0x39, 0x8f,
   0x03, 0x4a, 0x14, 0x25, 0x41, 0x10, 0x45, 0x02, 0x45, 0xc1, 0x36, 0x45,
   0x51, 0x04, 0x51, 0x14, 0x44, 0x41, 0x10, 0x44, 0x02, 0x25, 0xc1, 0x36,
   0x45, 0x51, 0x04, 0x51, 0x14, 0x44, 0x41, 0x10, 0x44, 0x02, 0x15, 0x41,
   0x55, 0x45, 0x51, 0x04, 0xd1, 0x13, 0x44, 0xcf, 0x93, 0x7d, 0x02, 0x0d,
   0x41, 0x55, 0x45, 0x4f, 0x04, 0x5f, 0x14, 0x44, 0x41, 0x10, 0x45, 0x02,
   0x15, 0x41, 0x54, 0x45, 0x41, 0x04, 0x51, 0x14, 0x44, 0x41, 0x10, 0x45,
   0x02, 0x25, 0x41, 0x94, 0x45, 0x41, 0x05, 0x51, 0x14, 0x25, 0x41, 0x10,
   0x45, 0x12, 0x45, 0x41, 0x94, 0x45, 0x41, 0x02, 0xd1, 0xe3, 0x1c, 0x5f,
   0xe0, 0x44, 0xe7, 0x44, 0x5f, 0x14, 0x39, 0x81, 0x05, 0x00, 0x00, 0x00,
   0x00, 0x00, 0x00, 0x00, 0x00, 0x00, 0x00, 0x00, 0x00, 0x00, 0x8f, 0xf3,
   0x45, 0x51, 0x14, 0x45, 0x1f, 0x41, 0x8e, 0x83, 0x7c, 0xce, 0x07, 0x51,
   0x44, 0x44, 0x51, 0x14, 0x45, 0x90, 0x62, 0x51, 0xc4, 0x04, 0x11, 0x04,
   0x51, 0x40, 0x44, 0x51, 0x14, 0x45, 0x50, 0x54, 0x10, 0xa4, 0x04, 0x01,
   0x04, 0x51, 0x40, 0x44, 0x51, 0xa4, 0x28, 0x48, 0x44, 0x10, 0x94, 0x04,
   0x01, 0x02, 0x8f, 0x43, 0x44, 0x51, 0x45, 0x28, 0x44, 0x44, 0x88, 0xf3,
   0x3d, 0x0f, 0x01, 0x03, 0x44, 0x44, 0x51, 0xa5, 0x10, 0x42, 0x44, 0x04,
   0x84, 0x40, 0x91, 0x00, 0x05, 0x44, 0x44, 0xca, 0x16, 0x11, 0x41, 0x44,
   0x02, 0x84, 0x40, 0x91, 0x00, 0x49, 0x44, 0x44, 0xca, 0x16, 0x11, 0x81,
   0x42, 0x41, 0x84, 0x44, 0x51, 0x00, 0x91, 0x43, 0x38, 0x44, 0x14, 0x11,
   0x1f, 0x41, 0x9f, 0x83, 0x38, 0x4e, 0x00, 0x00, 0x00, 0x00, 0x00, 0x00,
   0x00, 0x00, 0x00, 0x00, 0x00, 0x00, 0x00, 0x00, 0x8e, 0x93, 0x43, 0x4c,
   0x00, 0x00, 0x40, 0x80, 0x03, 0x00, 0x00, 0x00, 0x00, 0x51, 0x54, 0xe4,
   0x4d, 0x00, 0x00, 0x40, 0x40, 0x04, 0x00, 0x00, 0x00, 0x00, 0x51, 0x14,
   0x54, 0x40, 0x04, 0x10, 0x21, 0x40, 0x06, 0x00, 0x00, 0x00, 0x00, 0x51,
   0x14, 0x54, 0x20, 0x04, 0xa0, 0x20, 0x5f, 0x05, 0x00, 0x00, 0x00, 0x00,
   0x8e, 0x17, 0xe2, 0x10, 0xdf, 0x47, 0x10, 0x40, 0x05, 0x00, 0x00, 0x00,
   0x00, 0x11, 0x14, 0x41, 0x09, 0x04, 0xa0, 0x08, 0x5f, 0x05, 0x00, 0x00,
   0x00, 0x00, 0x11, 0x14, 0x41, 0x05, 0x04, 0x10, 0x09, 0x40, 0x03, 0x00,
   0x00, 0x00, 0x00, 0x51, 0x04, 0xf0, 0x64, 0x00, 0x00, 0x04, 0x40, 0x00,
   0x00, 0x00, 0x00, 0x00, 0x8e, 0x13, 0x41, 0x64, 0x00, 0x00, 0x04, 0x80,
   0x03, 0x00, 0x00, 0x00, 0x00};
