#define 8x12_width 100
#define 8x12_height 64
static unsigned char 8x12_bits[] = {
   0x18, 0x7e, 0xf0, 0xf8, 0xf0, 0xef, 0x1f, 0x8f, 0x61, 0x0f, 0xd8, 0x30,
   0x00, 0x3c, 0xfe, 0xf8, 0xf9, 0xf1, 0xef, 0x9f, 0x9f, 0x61, 0x0f, 0xd8,
   0x30, 0x00, 0x66, 0x86, 0x0d, 0x1b, 0x33, 0x60, 0xc0, 0xb0, 0x61, 0x06,
   0xd8, 0x18, 0x00, 0xc3, 0x86, 0x0d, 0x18, 0x36, 0x60, 0xc0, 0xb0, 0x61,
   0x06, 0xd8, 0x0c, 0x00, 0xc3, 0x86, 0x0d, 0x18, 0x36, 0x60, 0xc0, 0x80,
   0x61, 0x06, 0xd8, 0x06, 0x00, 0xc3, 0x7e, 0x0c, 0x18, 0xf6, 0xe7, 0xcf,
   0x80, 0x7f, 0x06, 0xd8, 0x03, 0x00, 0xff, 0x7e, 0x0c, 0x18, 0xf6, 0xe7,
   0xcf, 0xbc, 0x7f, 0x06, 0xd8, 0x03, 0x00, 0xff, 0x86, 0x0d, 0x18, 0x36,
   0x60, 0xc0, 0xbc, 0x61, 0x06, 0xd8, 0x06, 0x00, 0xc3, 0x86, 0x0d, 0x18,
   0x36, 0x60, 0xc0, 0xb0, 0x61, 0x66, 0xd8, 0x0c, 0x00, 0xc3, 0x86, 0x0d,
   0x1b, 0x33, 0x60, 0xc0, 0xb0, 0x61, 0xe6, 0xdc, 0x18, 0x00, 0xc3, 0xfe,
   0xf8, 0xf9, 0xf1, 0x6f, 0x80, 0x9f, 0x61, 0xcf, 0xcf, 0x30, 0x00, 0xc3,
   0x7e, 0xf0, 0xf8, 0xf0, 0x6f, 0x00, 0x8f, 0x61, 0x8f, 0xc7, 0x30, 0x00,
   0x00, 0x00, 0x00, 0x00, 0x00, 0x00, 0x00, 0x00, 0x00, 0x00, 0x00, 0x00,
   0x00, 0x03, 0x86, 0x0d, 0xe3, 0xf1, 0x83, 0x87, 0x0f, 0x1e, 0xff, 0x86,
   0x0d, 0x03, 0x03, 0x86, 0x0d, 0xf3, 0xf3, 0xc7, 0x8f, 0x1f, 0x3f, 0xff,
   0x86, 0x0d, 0x03, 0x03, 0xce, 0x1d, 0x1b, 0x36, 0x6c, 0x98, 0xb1, 0x61,
   0x18, 0x86, 0x0d, 0x03, 0x03, 0xce, 0x3d, 0x1b, 0x36, 0x6c, 0x98, 0xb1,
   0x01, 0x18, 0x86, 0x0d, 0x03, 0x03, 0xb6, 0x3d, 0x1b, 0x36, 0x6c, 0x98,
   0xb1, 0x03, 0x18, 0x86, 0x0d, 0x03, 0x03, 0xb6, 0x6d, 0x1b, 0x36, 0x6c,
   0x98, 0x31, 0x0f, 0x18, 0x86, 0x0d, 0x03, 0x03, 0xb6, 0x6d, 0x1b, 0xf6,
   0x67, 0x98, 0x1f, 0x3c, 0x18, 0x86, 0x99, 0x01, 0x03, 0x86, 0xcd, 0x1b,
   0xf6, 0x63, 0x93, 0x0f, 0x70, 0x18, 0x86, 0x99, 0x01, 0x03, 0x86, 0xcd,
   0x1b, 0x36, 0x60, 0x87, 0x0d, 0x60, 0x18, 0x86, 0xf1, 0x00, 0x03, 0x86,
   0x8d, 0x1b, 0x36, 0x60, 0x8e, 0x99, 0x61, 0x18, 0x86, 0xf1, 0x00, 0xff,
   0x86, 0x0d, 0xf3, 0x33, 0xc0, 0x9c, 0x31, 0x3f, 0x18, 0xfc, 0x60, 0x00,
   0xff, 0x86, 0x0d, 0xe3, 0x31, 0x80, 0x99, 0x31, 0x1e, 0x18, 0x78, 0x60,
   0x00, 0x00, 0x00, 0x00, 0x00, 0x00, 0x00, 0x00, 0x00, 0x00, 0x00, 0x00,
   0x00, 0x00, 0xc3, 0x86, 0x0d, 0xfb, 0x87, 0x01, 0xc6, 0x83, 0x07, 0x8e,
   0x7f, 0x3c, 0x00, 0xc3, 0x86, 0x0d, 0xfb, 0xc7, 0x03, 0xe7, 0xc7, 0x0f,
   0x8f, 0x7f, 0x7e, 0x00, 0xc3, 0x86, 0x0d, 0x03, 0x66, 0x86, 0x37, 0x6c,
   0x98, 0x8d, 0x01, 0xc3, 0x00, 0xc3, 0xcc, 0x98, 0x01, 0x33, 0xcc, 0x37,
   0x6c, 0xd8, 0x8c, 0x01, 0x03, 0x00, 0xc3, 0xcc, 0x98, 0x81, 0x31, 0xec,
   0x06, 0x0c, 0xd8, 0x8c, 0x01, 0x03, 0x00, 0xc3, 0x30, 0xf0, 0xc0, 0x30,
   0x6c, 0x06, 0x06, 0xcf, 0xbf, 0x1f, 0x3f, 0x00, 0xdb, 0x30, 0xf0, 0xc0,
   0x30, 0x0c, 0x06, 0x03, 0xcf, 0xbf, 0x3f, 0x7f, 0x00, 0xdb, 0xcc, 0x60,
   0x60, 0x30, 0x0c, 0x86, 0x01, 0x18, 0x0c, 0x70, 0xc3, 0x00, 0xe7, 0xcc,
   0x60, 0x30, 0x30, 0x0c, 0xc6, 0x60, 0x18, 0x0c, 0x60, 0xc3, 0x00, 0xe7,
   0x86, 0x61, 0x18, 0x60, 0x06, 0x66, 0x60, 0x18, 0x8c, 0x61, 0xc3, 0x00,
   0xc3, 0x86, 0x61, 0xf8, 0xc7, 0x03, 0xe6, 0xcf, 0x0f, 0x0c, 0x3f, 0x7e,
   0x00, 0xc3, 0x86, 0x61, 0xf8, 0x87, 0x01, 0xe6, 0x8f, 0x07, 0x0c, 0x1e,
   0x3c, 0x00, 0x00, 0x00, 0x00, 0x00, 0x00, 0x00, 0x00, 0x00, 0x00, 0x00,
   0x00, 0x00, 0x00, 0xff, 0x78, 0xf0, 0x30, 0x3c, 0x30, 0x18, 0x03, 0x00,
   0x00, 0x00, 0x18, 0x00, 0xff, 0xcc, 0xf8, 0x79, 0x7e, 0xf8, 0x24, 0x03,
   0x00, 0x00, 0x00, 0x18, 0x00, 0xc0, 0x86, 0x0d, 0x7b, 0xc3, 0xfc, 0x25,
   0xc3, 0x00, 0x00, 0x00, 0x18, 0x00, 0xc0, 0x86, 0x0d, 0x7b, 0xc3, 0x36,
   0x98, 0xc1, 0x00, 0x60, 0x0c, 0x0c, 0x00, 0x60, 0xcc, 0x0c, 0x7b, 0xc0,
   0x36, 0xc0, 0xc0, 0x00, 0xe0, 0x0e, 0x06, 0x00, 0x30, 0x78, 0xf8, 0x7b,
   0x60, 0x7c, 0x60, 0xf8, 0xf7, 0xcf, 0x07, 0x03, 0x00, 0x18, 0xfc, 0xf0,
   0x33, 0x30, 0xf8, 0x60, 0xf8, 0xf7, 0x8f, 0x03, 0x03, 0x00, 0x0c, 0xce,
   0x01, 0x33, 0x18, 0xb0, 0x31, 0xc0, 0x00, 0xc0, 0x87, 0x01, 0x00, 0x0c,
   0x86, 0x01, 0x03, 0x18, 0xb0, 0x99, 0xc1, 0x00, 0xe0, 0xce, 0x00, 0x00,
   0x0c, 0x86, 0x0d, 0x03, 0x00, 0xfe, 0x4c, 0xc2, 0x00, 0x60, 0x6c, 0x00,
   0x00, 0x0c, 0xcc, 0xf8, 0x31, 0x18, 0x7c, 0x4c, 0xc2, 0x00, 0x00, 0x60,
   0x00, 0x00, 0x0c, 0x78, 0xf0, 0x30, 0x18, 0x30, 0x8c, 0x01, 0x00, 0x00,
   0x60, 0x00, 0x00, 0x00, 0x00, 0x00, 0x00, 0x00, 0x00, 0x00, 0x00, 0x00,
   0x00, 0x00, 0x00, 0x00, 0x00, 0x78, 0x00, 0x00, 0x00, 0x00, 0x00, 0x00,
   0x00, 0x00, 0x00, 0x00, 0x00, 0x00, 0xfc, 0x00, 0x00, 0x00, 0x00, 0x00,
   0x00, 0x00, 0x00, 0x00, 0x00, 0x00, 0x00, 0x86, 0x01, 0x00, 0x00, 0x00,
   0x00, 0x00, 0x00, 0x00, 0x00, 0x00, 0x00, 0xff, 0x86, 0x01, 0x00, 0x00,
   0x00, 0x00, 0x00, 0x00, 0x00, 0x00, 0x00, 0x00, 0xff, 0xe6, 0x01, 0x00,
   0x00, 0x00, 0x00, 0x00, 0x00, 0x00, 0x00, 0x00, 0x00, 0x00, 0x96, 0x01,
   0x00, 0x00, 0x00, 0x00, 0x00, 0x00, 0x00, 0x00, 0x00, 0x00, 0x00, 0x96,
   0x01, 0x00, 0x00, 0x00, 0x00, 0x00, 0x00, 0x00, 0x00, 0x00, 0x00, 0xff,
   0xe6, 0x00, 0x00, 0x00, 0x00, 0x00, 0x00, 0x00, 0x00, 0x00, 0x00, 0x00,
   0xff, 0x06, 0x00, 0x00, 0x00, 0x00, 0x00, 0x00, 0x00, 0x00, 0x00, 0x00,
   0x00, 0x00, 0x06, 0x00, 0x00, 0x00, 0x00, 0x00, 0x00, 0x00, 0x00, 0x00,
   0x00, 0x00, 0x00, 0xfc, 0x00, 0x00, 0x00, 0x00, 0x00, 0x00, 0x00, 0x00,
   0x00, 0x00, 0x00, 0x00, 0x78, 0x00, 0x00, 0x00, 0x00, 0x00, 0x00, 0x00,
   0x00, 0x00, 0x00, 0x00};
